{"accessors":[{"bufferView":2,"componentType":5126,"count":16,"max":[3.0913500785827637,2.9981529712677,4.290711879730225],"min":[-2.9086499214172363,-3.0018470287323,1.2907119989395142],"type":"VEC3"},{"bufferView":2,"byteOffset":192,"componentType":5126,"count":16,"max":[0.5773503184318542,0.5773503184318542,1],"min":[-0.5773503184318542,-0.5773503184318542,-0.5773503184318542],"type":"VEC3"},{"bufferView":0,"componentType":5125,"count":18,"type":"SCALAR"},{"bufferView":2,"byteOffset":384,"componentType":5126,"count":12,"max":[3.6035170555114746,3.0318429470062256,-1.2086889743804932],"min":[-1.6464840173721313,-3.0303359031677246,-4.708689212799072],"type":"VEC3"},{"bufferView":2,"byteOffset":528,"componentType":5126,"count":12,"max":[0.447213739156723,0.7745965123176575,0.4472140073776245],"min":[-0.8944270014762878,-0.7745965123176575,-1],"type":"VEC3"},{"bufferView":1,"componentType":5126,"count":12,"max":[0.75,1],"min":[0.25,0.033493999391794205],"type":"VEC2"},{"bufferView":0,"byteOffset":72,"componentType":5125,"count":12,"type":"SCALAR"},{"bufferView":2,"byteOffset":672,"componentType":5126,"count":4,"max":[2.26003098487854,0.14424100518226624,4.0753278732299805],"min":[0.022707000374794006,-2.143332004547119,2.458298921585083],"type":"VEC3"},{"bufferView":2,"byteOffset":720,"componentType":5126,"count":4,"max":[0.5842342972755432,-0.5462842583656311,-0.600203275680542],"min":[0.5842342972755432,-0.5462842583656311,-0.600203275680542],"type":"VEC3"},{"bufferView":1,"byteOffset":96,"componentType":5126,"count":4,"max":[1,1],"min":[0,0],"type":"VEC2"},{"bufferView":0,"byteOffset":120,"componentType":5125,"count":6,"type":"SCALAR"},{"bufferView":2,"byteOffset":768,"componentType":5126,"count":4,"max":[0.26482000946998596,2.1097629070281982,4.0492048263549805],"min":[-1.9781700372695923,-0.058389998972415924,2.367100954055786],"type":"VEC3"},{"bufferView":2,"byteOffset":816,"componentType":5126,"count":4,"max":[-0.5589459538459778,0.6113169193267822,-0.5602419376373291],"min":[-0.5589459538459778,0.6113169193267822,-0.5602419376373291],"type":"VEC3"},{"bufferView":1,"byteOffset":128,"componentType":5126,"count":4,"max":[1,1],"min":[0,0],"type":"VEC2"},{"bufferView":0,"byteOffset":144,"componentType":5125,"count":6,"type":"SCALAR"},{"bufferView":2,"byteOffset":864,"componentType":5126,"count":4,"max":[2.2579400539398193,2.153855085372925,4.1612091064453125],"min":[0.05596400052309036,-0.07817500084638596,2.4935379028320312],"type":"VEC3"},{"bufferView":2,"byteOffset":912,"componentType":5126,"count":4,"max":[0.5888803005218506,0.5753113031387329,-0.567659318447113],"min":[0.5888803005218506,0.5753113031387329,-0.567659318447113],"type":"VEC3"},{"bufferView":1,"byteOffset":160,"componentType":5126,"count":4,"max":[1,1],"min":[0,0],"type":"VEC2"},{"bufferView":0,"byteOffset":168,"componentType":5125,"count":6,"type":"SCALAR"},{"bufferView":2,"byteOffset":960,"componentType":5126,"count":4,"max":[0.27639999985694885,0.10903000086545944,4.017148971557617],"min":[-1.962638020515442,-2.1089560985565186,2.36217999458313],"type":"VEC3"},{"bufferView":2,"byteOffset":1008,"componentType":5126,"count":4,"max":[-0.5750101208686829,-0.5811881422996521,-0.5758331418037415],"min":[-0.5750101208686829,-0.5811881422996521,-0.5758331418037415],"type":"VEC3"},{"bufferView":1,"byteOffset":192,"componentType":5126,"count":4,"max":[1,1],"min":[0,0],"type":"VEC2"},{"bufferView":0,"byteOffset":192,"componentType":5125,"count":6,"type":"SCALAR"},{"bufferView":2,"byteOffset":1056,"componentType":5126,"count":4,"max":[2.0138258934020996,1.9458719491958618,-2.3127169609069824],"min":[-0.5408459901809692,-0.11239100247621536,-4.402248859405518],"type":"VEC3"},{"bufferView":2,"byteOffset":1104,"componentType":5126,"count":4,"max":[0.4427489936351776,0.7699189782142639,0.4595629870891571],"min":[0.4427489936351776,0.7699189782142639,0.4595629870891571],"type":"VEC3"},{"bufferView":1,"byteOffset":224,"componentType":5126,"count":4,"max":[1,1],"min":[0,0],"type":"VEC2"},{"bufferView":0,"byteOffset":216,"componentType":5125,"count":6,"type":"SCALAR"},{"bufferView":2,"byteOffset":1152,"componentType":5126,"count":4,"max":[-0.5612239837646484,1.111907958984375,-2.496648073196411],"min":[-1.5571039915084839,-1.1113510131835938,-4.484386920928955],"type":"VEC3"},{"bufferView":2,"byteOffset":1200,"componentType":5126,"count":4,"max":[0.8940651416778564,0,-0.4479370713233948],"min":[0.8940651416778564,0,-0.4479370713233948],"type":"VEC3"},{"bufferView":1,"byteOffset":256,"componentType":5126,"count":4,"max":[1,1],"min":[0,0],"type":"VEC2"},{"bufferView":0,"byteOffset":240,"componentType":5125,"count":6,"type":"SCALAR"},{"bufferView":2,"byteOffset":1248,"componentType":5126,"count":4,"max":[2.0282609462738037,0.10030599683523178,-2.3384599685668945],"min":[-0.7114149928092957,-2.1320369243621826,-4.571603775024414],"type":"VEC3"},{"bufferView":2,"byteOffset":1296,"componentType":5126,"count":4,"max":[0.44364693760871887,-0.7722828984260559,0.4547049403190613],"min":[0.44364693760871887,-0.7722828984260559,0.4547049403190613],"type":"VEC3"},{"bufferView":1,"byteOffset":288,"componentType":5126,"count":4,"max":[1,1],"min":[0,0],"type":"VEC2"},{"bufferView":0,"byteOffset":264,"componentType":5125,"count":6,"type":"SCALAR"},{"bufferView":2,"byteOffset":1344,"componentType":5126,"count":439,"max":[1.0740089416503906,0.9912999868392944,1.0674769878387451],"min":[-0.9170719981193542,-0.9997820258140564,-0.9236040115356445],"type":"VEC3"},{"bufferView":2,"byteOffset":6612,"componentType":5126,"count":439,"max":[1,1,1],"min":[-1,-1,-1],"type":"VEC3"},{"bufferView":1,"byteOffset":320,"componentType":5126,"count":439,"max":[1,1],"min":[0,0],"type":"VEC2"},{"bufferView":0,"byteOffset":288,"componentType":5125,"count":2280,"type":"SCALAR"},{"bufferView":2,"byteOffset":11880,"componentType":5126,"count":84,"max":[0.10315199941396713,0.008059999905526638,3.63952898979187],"min":[0.08315200358629227,-0.011939999647438526,-2.660470962524414],"type":"VEC3"},{"bufferView":2,"byteOffset":12888,"componentType":5126,"count":84,"max":[1,1,1],"min":[-1,-1,-1],"type":"VEC3"},{"bufferView":1,"byteOffset":3832,"componentType":5126,"count":84,"max":[0.65625,1],"min":[0.34375,0],"type":"VEC2"},{"bufferView":0,"byteOffset":9408,"componentType":5125,"count":240,"type":"SCALAR"}],"asset":{"extras":{"author":"qudwjdroal (https://sketchfab.com/qudwjdroal)","license":"CC-BY-4.0 (http://creativecommons.org/licenses/by/4.0/)","source":"https://sketchfab.com/3d-models/second-c87a846d302b4c35a639bddeb55a72fc","title":"Second"},"generator":"Sketchfab-16.12.0","version":"2.0"},"bufferViews":[{"buffer":0,"byteLength":10368,"name":"floatBufferViews","target":34963},{"buffer":0,"byteLength":4504,"byteOffset":10368,"byteStride":8,"name":"floatBufferViews","target":34962},{"buffer":0,"byteLength":13896,"byteOffset":14872,"byteStride":12,"name":"floatBufferViews","target":34962}],"buffers":[{"byteLength":28768,"uri":"data:application/octet-stream;base64,"}],"materials":[{"doubleSided":true,"name":"lambert1SG","pbrMetallicRoughness":{"metallicFactor":0,"roughnessFactor":0.6}},{"doubleSided":true,"name":"lambert2SG","pbrMetallicRoughness":{"metallicFactor":0,"roughnessFactor":0.6}},{"doubleSided":true,"name":"lambert3SG","pbrMetallicRoughness":{"metallicFactor":0,"roughnessFactor":0.6}},{"doubleSided":true,"name":"lambert4SG","pbrMetallicRoughness":{"metallicFactor":0,"roughnessFactor":0.6}},{"doubleSided":true,"name":"lambert5SG","pbrMetallicRoughness":{"metallicFactor":0,"roughnessFactor":0.6}},{"doubleSided":true,"name":"lambert6SG","pbrMetallicRoughness":{"metallicFactor":0,"roughnessFactor":0.6}},{"doubleSided":true,"name":"lambert7SG","pbrMetallicRoughness":{"metallicFactor":0,"roughnessFactor":0.6}},{"doubleSided":true,"name":"lambert8SG","pbrMetallicRoughness":{"metallicFactor":0,"roughnessFactor":0.6}},{"doubleSided":true,"name":"lambert9SG","pbrMetallicRoughness":{"metallicFactor":0,"roughnessFactor":0.6}},{"doubleSided":true,"name":"surfaceShader1SG","pbrMetallicRoughness":{"metallicFactor":0,"roughnessFactor":0.6}}],"meshes":[{"name":"Object_0","primitives":[{"attributes":{"NORMAL":1,"POSITION":0},"indices":2,"material":0,"mode":4}]},{"name":"Object_1","primitives":[{"attributes":{"NORMAL":4,"POSITION":3,"TEXCOORD_0":5},"indices":6,"material":0,"mode":4}]},{"name":"Object_2","primitives":[{"attributes":{"NORMAL":8,"POSITION":7,"TEXCOORD_0":9},"indices":10,"material":1,"mode":4}]},{"name":"Object_3","primitives":[{"attributes":{"NORMAL":12,"POSITION":11,"TEXCOORD_0":13},"indices":14,"material":2,"mode":4}]},{"name":"Object_4","primitives":[{"attributes":{"NORMAL":16,"POSITION":15,"TEXCOORD_0":17},"indices":18,"material":3,"mode":4}]},{"name":"Object_5","primitives":[{"attributes":{"NORMAL":20,"POSITION":19,"TEXCOORD_0":21},"indices":22,"material":4,"mode":4}]},{"name":"Object_6","primitives":[{"attributes":{"NORMAL":24,"POSITION":23,"TEXCOORD_0":25},"indices":26,"material":5,"mode":4}]},{"name":"Object_7","primitives":[{"attributes":{"NORMAL":28,"POSITION":27,"TEXCOORD_0":29},"indices":30,"material":6,"mode":4}]},{"name":"Object_8","primitives":[{"attributes":{"NORMAL":32,"POSITION":31,"TEXCOORD_0":33},"indices":34,"material":7,"mode":4}]},{"name":"Object_9","primitives":[{"attributes":{"NORMAL":36,"POSITION":35,"TEXCOORD_0":37},"indices":38,"material":8,"mode":4}]},{"name":"Object_10","primitives":[{"attributes":{"NORMAL":40,"POSITION":39,"TEXCOORD_0":41},"indices":42,"material":9,"mode":4}]}],"nodes":[{"children":[1],"matrix":[1,0,0,0,0,2.220446049250313e-16,-1,0,0,1,2.220446049250313e-16,0,0,0,0,1],"name":"Sketchfab_model"},{"children":[2,3,4,5,6,7,8,9,10,11,12],"name":"dfc93959592f492c9e214eabfd9ca34d.obj.cleaner.materialmerger.gles"},{"mesh":0,"name":"Object_2"},{"mesh":1,"name":"Object_3"},{"mesh":2,"name":"Object_4"},{"mesh":3,"name":"Object_5"},{"mesh":4,"name":"Object_6"},{"mesh":5,"name":"Object_7"},{"mesh":6,"name":"Object_8"},{"mesh":7,"name":"Object_9"},{"mesh":8,"name":"Object_10"},{"mesh":9,"name":"Object_11"},{"mesh":10,"name":"Object_12"}],"scene":0,"scenes":[{"name":"Sketchfab_Scene","nodes":[0]}]}